<?xml version="1.0" encoding="UTF-8" standalone="no"?>
<!DOCTYPE svg PUBLIC "-//W3C//DTD SVG 1.1//EN" "http://www.w3.org/Graphics/SVG/1.1/DTD/svg11.dtd">
<svg width="100%" height="100%" viewBox="0 0 1000 1000" version="1.1" xmlns="http://www.w3.org/2000/svg" xmlns:xlink="http://www.w3.org/1999/xlink" xml:space="preserve" xmlns:serif="http://www.serif.com/" style="fill-rule:evenodd;clip-rule:evenodd;stroke-linejoin:round;stroke-miterlimit:2;">
    <g id="Starship" transform="matrix(4.306,0,0,4.306,-131.076,-302.193)">
        <path d="M122.679,232.098L122.679,290.802C122.679,290.802 110.647,288.911 108.078,288.507C107.802,288.464 107.599,288.226 107.599,287.947C107.599,285.152 107.599,271.146 107.599,268.965C107.599,268.777 107.636,268.59 107.708,268.416C109.066,265.121 122.679,232.098 122.679,232.098Z" style="fill:rgb(166,166,166);"/>
        <path d="M127.248,213.483L122.679,232.098L122.679,290.802L127.248,290.802L127.248,213.483" style="fill:rgb(179,179,179);"/>
        <g transform="matrix(-1,0,0,1,293.115,0)">
            <path d="M122.679,232.098L122.679,290.802C122.679,290.802 110.647,288.911 108.078,288.507C107.802,288.464 107.599,288.226 107.599,287.947C107.599,285.152 107.599,271.146 107.599,268.965C107.599,268.777 107.636,268.59 107.708,268.416C109.066,265.121 122.679,232.098 122.679,232.098Z" style="fill:rgb(166,166,166);"/>
        </g>
        <g transform="matrix(-1,0,0,1,293.115,0)">
            <path d="M127.248,213.483L122.679,232.098L122.679,290.802L127.248,290.802L127.248,213.483" style="fill:rgb(179,179,179);"/>
        </g>
        <g id="Canard-Fins" serif:id="Canard Fins">
            <path d="M127.249,139.526C127.249,139.526 115.082,137.038 113.447,136.704C113.342,136.682 113.266,136.59 113.266,136.482C113.266,135.3 113.266,128.79 113.266,127.321C113.266,127.129 113.325,126.942 113.433,126.784C115.704,123.48 140.424,87.512 142.144,85.301" style="fill:rgb(166,166,166);"/>
            <g transform="matrix(-1,0,0,1,293.105,0)">
                <path d="M127.249,139.526C127.249,139.526 115.082,137.038 113.447,136.704C113.342,136.682 113.266,136.59 113.266,136.482C113.266,135.3 113.266,128.79 113.266,127.321C113.266,127.129 113.325,126.942 113.433,126.784C115.704,123.48 140.424,87.512 142.144,85.301" style="fill:rgb(166,166,166);"/>
            </g>
        </g>
        <path d="M127.248,290.802L127.249,139.526C127.368,108.406 141.266,81.791 146.557,81.791L146.588,81.792C151.904,81.898 165.747,108.469 165.866,139.526L165.867,290.802L127.248,290.802Z" style="fill:rgb(191,191,191);"/>
        <g transform="matrix(1,0,0,1,-353.443,-247.858)">
            <path d="M488.36,357.71C487.972,357.71 487.608,357.522 487.384,357.206C487.16,356.889 487.103,356.484 487.232,356.118C492.78,340.357 497.002,332.77 500,332.732L500.035,332.733C503.031,332.829 507.242,340.418 512.768,356.118C512.897,356.484 512.84,356.889 512.616,357.206C512.392,357.522 512.028,357.71 511.64,357.71L488.36,357.71Z" style="fill:rgb(38,38,38);"/>
        </g>
        <g transform="matrix(1,0,0,1,-353.433,-247.817)">
            <path d="M514.821,361.881C514.821,361.394 514.426,360.999 513.939,360.999L486.042,360.999C485.555,360.999 485.16,361.394 485.16,361.881C485.16,362.367 485.555,362.762 486.042,362.762L513.939,362.762C514.426,362.762 514.821,362.367 514.821,361.881Z" style="fill:rgb(38,38,38);"/>
        </g>
        <g transform="matrix(1.08987,0,0,1,-398.365,-242.937)">
            <path d="M514.821,361.881C514.821,361.394 514.458,360.999 514.012,360.999L485.969,360.999C485.522,360.999 485.16,361.394 485.16,361.881C485.16,362.367 485.522,362.762 485.969,362.762L514.012,362.762C514.458,362.762 514.821,362.367 514.821,361.881Z" style="fill:rgb(38,38,38);"/>
        </g>
        <g transform="matrix(1.13492,0,0,1,-420.894,-238.058)">
            <path d="M514.821,361.881C514.821,361.394 514.473,360.999 514.044,360.999L485.937,360.999C485.508,360.999 485.16,361.394 485.16,361.881C485.16,362.367 485.508,362.762 485.937,362.762L514.044,362.762C514.473,362.762 514.821,362.367 514.821,361.881Z" style="fill:rgb(38,38,38);"/>
        </g>
        <g transform="matrix(1.18062,0,0,1,-443.743,-233.179)">
            <path d="M514.821,361.881C514.821,361.394 514.486,360.999 514.074,360.999L485.907,360.999C485.495,360.999 485.16,361.394 485.16,361.881C485.16,362.367 485.495,362.762 485.907,362.762L514.074,362.762C514.486,362.762 514.821,362.367 514.821,361.881Z" style="fill:rgb(38,38,38);"/>
        </g>
        <g transform="matrix(1.21647,0,0,1,-461.668,-228.3)">
            <path d="M514.821,361.881C514.821,361.394 514.496,360.999 514.096,360.999L485.885,360.999C485.485,360.999 485.16,361.394 485.16,361.881C485.16,362.367 485.485,362.762 485.885,362.762L514.096,362.762C514.496,362.762 514.821,362.367 514.821,361.881Z" style="fill:rgb(38,38,38);"/>
        </g>
        <g transform="matrix(1.21647,0,0,1,-461.668,-223.421)">
            <path d="M514.821,361.881C514.821,361.394 514.496,360.999 514.096,360.999L485.885,360.999C485.485,360.999 485.16,361.394 485.16,361.881C485.16,362.367 485.485,362.762 485.885,362.762L514.096,362.762C514.496,362.762 514.821,362.367 514.821,361.881Z" style="fill:rgb(38,38,38);"/>
        </g>
        <g transform="matrix(1.01754,0,0,1,-361.71,-247.858)">
            <path d="M490.954,523.154C490.954,523.154 489.918,524.497 489.267,525.34C488.933,525.773 488.752,526.307 488.752,526.857C488.752,529.692 488.752,538.66 488.752,538.66L490.954,538.66L490.954,523.154Z" style="fill:rgb(102,102,102);"/>
        </g>
        <g transform="matrix(-1.01754,0,0,1,654.825,-247.858)">
            <path d="M490.954,523.154C490.954,523.154 489.918,524.497 489.267,525.34C488.933,525.773 488.752,526.307 488.752,526.857C488.752,529.692 488.752,538.66 488.752,538.66L490.954,538.66L490.954,523.154Z" style="fill:rgb(102,102,102);"/>
        </g>
    </g>
    <g id="reflection" transform="matrix(4.306,0,0,4.306,-1653,-1369.47)">
        <g transform="matrix(1.04039,0,0,0.986683,-20.0564,3.78843)">
            <path d="M496.553,340.364C488.418,355.605 485.992,372.207 485.791,389.341L485.791,542.09L496.553,542.09L496.553,340.364Z" style="fill:white;fill-opacity:0.5;"/>
        </g>
        <g transform="matrix(1.0066,0,0,4.94284,-3.38565,-2140.8)">
            <path d="M512.97,511.757C513.289,508.723 510.466,504.659 502.47,500.72C507.208,504.466 508.968,508.696 508.718,511.757L508.718,542.09L512.97,542.09L512.97,511.757Z" style="fill:white;fill-opacity:0.5;"/>
        </g>
    </g>
</svg>
