<svg version="1.0" xmlns="http://www.w3.org/2000/svg" width="1600" height="1600" viewBox="0 0 1200 1200"><path d="M570 32.1c-101.8 6-200.4 39-284.2 95-82.1 54.9-147.5 128-191.9 214.4C59.2 409 39.7 477.7 32.9 556c-1.6 18.4-1.6 65.3-.1 83C42.4 745.4 77 840.6 136.7 924.7c99.6 140.4 254.4 227.4 425.8 239.4 24.3 1.7 75.8.6 98.5-2 114.6-13.3 215.6-56.7 303.2-130.2 17.2-14.5 53.4-50.7 67.2-67.4 57.3-68.9 95.7-144.1 117.1-229.5 6.3-25.4 10.7-50.4 14.2-82 2.5-22.2 2.5-85 0-107-8.2-72.8-25.5-133-55.7-194.5-13.1-26.7-21.7-41.7-36.5-64-65.5-98.7-155.6-172.2-265-216.3C732 41.7 647.1 27.5 570 32.1zM637.1 97c124.2 9.6 236.3 61.8 322.2 149.9C1028.5 318 1074.4 405.2 1094 503c17.4 87 12.3 172-15.5 255.5-14.4 43.2-32.5 80.5-58 119-20.1 30.4-37.3 51.4-64.8 79l-18 18-.8-3c-.4-1.7-2.6-10.9-4.9-20.5-7-29.6-18.8-61.6-32.1-87-23-43.8-72-96.5-114.2-122.6-9-5.6-38.5-20.4-40.6-20.4-2.1 0-1-1.5 3.2-4.6 5.8-4.3 27.6-24.2 36.8-33.6 9.8-10 16.7-19.8 28.1-39.4 10.5-18.2 16-30.1 22.3-48.4 19.6-57.4 15.5-131.6-10.4-185.5-20-41.6-51.4-77.9-89.1-103-69-46-162.3-53-241.1-18-43.7 19.4-83.7 54.2-109.4 95.1-13.4 21.2-22.2 42-28.5 66.8-5.5 21.8-7.2 34.9-7.7 59.6-1.1 48.4 6.4 79.7 28.7 120 10.8 19.6 20.6 33.1 38.8 53.4 15.5 17.3 21.9 23.5 29.5 28.5l6.8 4.4-15.8 8.2c-47.9 24.7-77.2 49.1-112.6 93.8-31.6 39.9-55.2 92.3-64.3 142.4-.9 5.1-2 9.3-2.4 9.3-1.4 0-33.6-33.7-43.9-46-64.1-76.6-103-166.6-115.3-267.1-1.9-16.2-2.2-23.1-2.2-56.9s.3-40.7 2.2-56.9c7.3-59.1 23.1-113.1 48.1-163.9 11.6-23.5 18.7-35.7 33.7-58.2 20.7-31.1 40.9-55.6 67.3-81.3 87.2-84.9 197-134.1 319.1-143 11.2-.8 57.9-.6 70.1.3zm-.9 248.9c25 5.5 45.5 15.4 69.8 33.7 39.3 29.7 61 67.5 67.1 116.8 1.7 14 .6 42.1-2.1 55.1-2.9 13.8-8.3 29.5-13.2 38.4-18.1 33.1-41.3 58.4-69 75.5-45.8 28.2-117.6 30.7-162.9 5.6-26.5-14.8-49.4-34.1-64.5-54.6-15.8-21.3-24.4-41.8-29.6-70.4-2.5-13.9-3-43.8-1-56.5 1.9-11.7 6.6-29.3 10.2-37.7 3.9-9.5 14.2-26.7 23.2-38.8 8.8-11.8 28.7-31.6 39.5-39.3 19.9-14.1 47.1-25.7 68.8-29.3 12.8-2.1 51.3-1.2 63.7 1.5zM630 762.1c30.7 3.4 56.7 11.3 87.5 26.4 43.1 21.1 78.2 51.7 103.8 90.5 8 12.1 19.9 36 25.2 50.4 10.3 28.1 17.5 65.7 17.5 91.6v8.6l-13.2 7.7c-65.5 37.6-137.4 59.6-214.2 65.7-16.6 1.3-56.6 1.3-73.2 0-78.4-6.2-154.8-30.2-219.4-68.8l-11.5-6.9.2-9.9c.4-13.9 2.1-28.7 4.9-43.7C351.1 903.5 389.5 848 455 803.8c17.1-11.6 32.7-19.1 55.5-26.8 44.3-15 79.6-19.4 119.5-14.9zm-299.2 95.1c-3.8 5.8-12.5 22-17.3 32.1-13.8 29.3-23.2 59.8-28 91.4-1.3 8.2-2.1 11-3 10.6-2.2-.8-2.3-2.4-.4-13.7 5.5-32 16.5-64.9 30.9-92.4 5.8-11 17.7-30.2 18.7-30.2.3 0-.1 1-.9 2.2z" fill="#409EFE"/></svg>